# xmcd
#
# Track frame offsets:
#	150
#	11872
#	21472
#	38055
#	57510
#	81020
#	91805
#	111125
#	119720
#	129712
#	143607
#	154070
#	166550
#	187077
#	202017
#	216637
#	227087
#	250550
#	262195
#	276030
#
# Disc length: 3847
#
# Revision: 1
# Processed by: cddbd v1.5.1PL0 Copyright (c) Steve Scherf et al.
# Submitted via: CDex 1.51
# Normalized: r0:TDELIM( - )
#
DISCID=250f0514
DTITLE=Various Artist - All That Jazz
DYEAR=1996
DGENRE=Jazz
TTITLE0=count basie and his orchestra - the kid from red bank
TTITLE1=tony bennett - chicago
TTITLE2=the billy taylor trio - i wish i knew (how it could feel to be free)
TTITLE3=bing crosby - and louis armstrong - now you has jazz
TTITLE4=duke ellington - one o'clock jump
TTITLE5=nancy wilson - satin doll
TTITLE6=cannonball adderly quintet - mercy, mercy, mercy
TTITLE7=sarah vaughan - i got rhythm
TTITLE8=peggy lee - things are swingin'
TTITLE9=benny goodman and his orchestra - don't be that way
TTITLE10=chet baker - my funny valentine
TTITLE11=nat king cole - let there be love
TTITLE12=stan kenton and his orchestra - the peanut vendor
TTITLE13=artie shaw - begin the beguine
TTITLE14=woody herman - early autumn
TTITLE15=dinah washington - call me irresponsible
TTITLE16=horace silver - song for my father
TTITLE17=sid phillips and his band - tiger rag
TTITLE18=joe daniels jazz group - st louis blues
TTITLE19=humphrey lyttleton and his band - heat wave
EXTD=YEAR: 1996
EXTT0=
EXTT1=
EXTT2=
EXTT3=
EXTT4=
EXTT5=
EXTT6=
EXTT7=
EXTT8=
EXTT9=
EXTT10=
EXTT11=
EXTT12=
EXTT13=
EXTT14=
EXTT15=
EXTT16=
EXTT17=
EXTT18=
EXTT19=
PLAYORDER=
